#!OML:ASF C:\ViconDB\ViconDB\414\Spring2016\041811\Spring2016.ASF
:FULLY-SPECIFIED
:DEGREES
287
root 8.8896 17.6984 -23.468 -182.488 -3.58553 -172.019
lowerback -0.613439 1.76342 -1.4687
upperback 0.116287 2.35724 0.845138
thorax 0.367816 1.17379 1.70751
lowerneck -12.1759 4.14159 -5.08537
upperneck 30.8187 -3.65422 22.2652
head 12.7637 -1.02575 9.03672
rclavicle 7.90169e-015 -5.64548e-014
rhumerus -88.3709 34.6116 -120.77
rradius 85.4293
rwrist 24.1165
rhand -44.2331 -3.79038
rfingers 7.12502
rthumb -17.0456 -33.0625
lclavicle 7.90169e-015 -5.64548e-014
lhumerus -85.8081 -43.725 121.12
lradius 77.9882
lwrist -28.1599
lhand -42.6956 -3.0329
lfingers 7.12502
lthumb -15.5652 26.3607
rfemur 308.013 102.262 -358.328
rtibia 40.7887
rfoot -462.025 -48.4707
rtoes -5.56646
lfemur -34.5901 1.82687 -4.96063
ltibia 66.7647
lfoot -11.0881 -4.16971
ltoes -10.6827
288
root 8.90844 17.686 -23.6626 -182.55 -3.57273 -171.687
lowerback -0.634449 1.96857 -1.60786
upperback 0.148484 2.63368 0.743206
thorax 0.399943 1.31166 1.68411
lowerneck -12.0288 4.03939 -5.22023
upperneck 30.5279 -4.01931 22.9509
head 12.7078 -1.18087 9.28765
rclavicle 2.18912e-014 1.11319e-014
rhumerus -88.7276 34.677 -121.342
rradius 85.2675
rwrist 23.3691
rhand -44.3199 -3.28515
rfingers 7.12502
rthumb -17.1291 -32.5501
lclavicle 2.18912e-014 1.11319e-014
lhumerus -85.6899 -43.8103 120.712
lradius 78.6901
lwrist -28.0157
lhand -42.117 -3.52522
lfingers 7.12502
lthumb -15.0079 25.9109
rfemur 301.358 101.584 -364.53
rtibia 40.701
rfoot -463.26 -47.6339
rtoes -5.79661
lfemur -35.6052 1.10078 -4.51351
ltibia 64.5234
lfoot -11.5937 -4.82069
ltoes -10.8916
289
root 8.92829 17.6692 -23.8582 -182.549 -3.69154 -171.538
lowerback -0.808542 2.11014 -2.04228
upperback 0.2303 2.83072 0.708602
thorax 0.554007 1.40679 1.90172
lowerneck -11.9211 3.95616 -5.46513
upperneck 30.2729 -4.27786 23.5588
head 12.6532 -1.2985 9.54739
rclavicle 3.77691e-014 7.95139e-015
rhumerus -89.0576 34.9367 -121.685
rradius 85.2514
rwrist 22.0212
rhand -44.3716 -2.1542
rfingers 7.12502
rthumb -17.1789 -31.4148
lclavicle 3.77691e-014 7.95139e-015
lhumerus -85.2535 -43.8718 120.309
lradius 79.0085
lwrist -28.8076
lhand -42.0093 -3.30553
lfingers 7.12502
lthumb -14.9042 26.1383
rfemur 294.902 101.185 -370.796
rtibia 40.5468
rfoot -464.413 -47.4342
rtoes -5.04026
lfemur -36.568 0.0905275 -4.2534
ltibia 62.0384
lfoot -11.9165 -5.42334
ltoes -12.1829
290
root 8.94809 17.6539 -24.059 -182.468 -3.73366 -171.207
lowerback -1.15154 2.2417 -2.29599
upperback 0.300381 3.0173 0.717517
thorax 0.795563 1.49525 2.07111
lowerneck -11.8204 3.91635 -5.6239
upperneck 29.9936 -4.45789 24.1136
head 12.575 -1.37337 9.77412
rclavicle 5.82439e-014 -3.81667e-014
rhumerus -89.4056 35.1271 -122.121
rradius 85.0572
rwrist 22.2315
rhand -44.9954 -3.01728
rfingers 7.12502
rthumb -17.7792 -32.2245
lclavicle 5.82439e-014 -3.81667e-014
lhumerus -84.8682 -43.8239 119.844
lradius 79.5943
lwrist -28.528
lhand -41.4288 -3.82271
lfingers 7.12502
lthumb -14.3448 25.6617
rfemur 289.262 101.005 -376.024
rtibia 40.3335
rfoot -465.3 -47.5101
rtoes -3.20162
lfemur -37.4582 -0.672631 -3.80979
ltibia 59.3245
lfoot -12.0106 -6.15373
ltoes -11.9929
291
root 8.96077 17.6444 -24.2562 -182.454 -3.70738 -170.936
lowerback -1.33359 2.41854 -2.46951
upperback 0.348852 3.26078 0.71464
thorax 0.925065 1.61373 2.17815
lowerneck -11.6906 3.87986 -5.71064
upperneck 29.7747 -4.63898 24.5768
head 12.5146 -1.45167 9.95151
rclavicle -3.55576e-014 1.59028e-014
rhumerus -90.0462 35.4501 -122.828
rradius 84.9162
rwrist 22.6538
rhand -45.4575 -4.56054
rfingers 7.12502
rthumb -18.2238 -33.7269
lclavicle -3.55576e-014 1.59028e-014
lhumerus -84.5687 -43.775 119.54
lradius 80.0623
lwrist -28.2738
lhand -41.1094 -4.31219
lfingers 7.12502
lthumb -14.037 25.1938
rfemur 284.963 101.253 -380.001
rtibia 40.1461
rfoot -465.769 -47.6613
rtoes -1.73101
lfemur -38.0964 -1.57299 -3.36815
ltibia 56.4482
lfoot -11.959 -7.04107
ltoes -12.2229
292
root 8.96873 17.6254 -24.4541 -182.386 -3.78815 -170.641
lowerback -1.58345 2.54782 -2.49004
upperback 0.405488 3.44158 0.606053
thorax 1.11857 1.70073 2.09563
lowerneck -11.6248 3.83985 -5.68653
upperneck 29.5493 -4.8725 25.0517
head 12.4824 -1.54299 10.1083
rclavicle -3.49053e-014 -1.90833e-014
rhumerus -90.2743 35.6401 -123.37
rradius 84.774
rwrist 22.1131
rhand -45.7107 -4.50652
rfingers 7.12502
rthumb -18.4674 -33.6499
lclavicle -3.49053e-014 -1.90833e-014
lhumerus -84.3278 -43.8973 119.119
lradius 80.4194
lwrist -28.6098
lhand -40.9089 -3.97667
lfingers 7.12502
lthumb -13.8439 25.5426
rfemur 280.922 101.493 -383.709
rtibia 39.9627
rfoot -466.303 -48.0476
rtoes 0.396562
lfemur -38.7157 -2.43922 -2.93543
ltibia 53.4443
lfoot -11.724 -8.10507
ltoes -12.7323
293
root 8.93051 17.6216 -24.6187 -181.169 -4.4257 -171.244
lowerback -2.50507 2.47306 -2.69615
upperback 0.0577763 3.37197 0.0938003
thorax 1.30073 1.66521 1.72051
lowerneck -11.4724 3.82673 -5.73223
upperneck 29.3216 -5.04495 25.5389
head 12.4167 -1.61992 10.2891
rclavicle 9.15031e-015 1.43125e-014
rhumerus -90.548 35.725 -123.84
rradius 84.6404
rwrist 21.6812
rhand -45.8845 -4.57988
rfingers 7.12502
rthumb -18.6346 -33.7073
lclavicle 9.15031e-015 1.43125e-014
lhumerus -84.0681 -43.8624 118.709
lradius 80.6805
lwrist -28.9567
lhand -40.7567 -4.18113
lfingers 7.12502
lthumb -13.6972 25.3481
rfemur 275.184 100.24 -390.345
rtibia 39.9872
rfoot -468.14 -48.5477
rtoes 1.35142
lfemur -40.5046 -3.8332 -3.70385
ltibia 50.2535
lfoot -11.1137 -8.7101
ltoes -13.1662
294
root 8.93282 17.6181 -24.8151 -180.979 -4.36692 -171.674
lowerback -2.75 2.65196 -3.38149
upperback 0.0450566 3.63818 -0.165112
thorax 1.38628 1.79036 1.85689
lowerneck -11.3857 3.80832 -5.83314
upperneck 29.1745 -5.24418 26.043
head 12.4084 -1.71301 10.5011
rclavicle 1.21678e-015 -7.95139e-015
rhumerus -90.8336 35.8355 -124.397
rradius 84.5142
rwrist 21.0303
rhand -46.0723 -4.64525
rfingers 7.12502
rthumb -18.8153 -33.7553
lclavicle 1.21678e-015 -7.95139e-015
lhumerus -83.8477 -43.8391 118.431
lradius 80.9501
lwrist -28.7454
lhand -40.6696 -4.41501
lfingers 7.12502
lthumb -13.6132 25.1199
rfemur 274.777 100.88 -391.102
rtibia 39.9086
rfoot -467.989 -49.225
rtoes 4.99169
lfemur -40.7588 -4.69526 -4.05283
ltibia 46.9938
lfoot -10.4107 -9.37567
ltoes -13.5015
295
root 8.94193 17.6174 -24.9961 -181.095 -4.35184 -173.709
lowerback -2.36816 2.78527 -5.82841
upperback 0.140193 3.84894 -0.776677
thorax 1.14051 1.87123 2.57423
lowerneck -11.2331 3.8443 -5.82653
upperneck 29.0271 -5.31051 26.3815
head 12.3458 -1.74374 10.6255
rclavicle -7.26185e-015 -5.40694e-014
rhumerus -91.302 36.1173 -125.089
rradius 84.3342
rwrist 21.1924
rhand -46.561 -5.53247
rfingers 7.12502
rthumb -19.2852 -34.5962
lclavicle -7.26185e-015 -5.40694e-014
lhumerus -83.4217 -43.7005 117.895
lradius 81.0234
lwrist -29.4664
lhand -40.7451 -4.11441
lfingers 7.12502
lthumb -13.686 25.4156
rfemur 277.132 102.308 -390.81
rtibia 39.6716
rfoot -466.581 -50.137
rtoes 6.50166
lfemur -40.4902 -5.76248 -6.21136
ltibia 43.8694
lfoot -9.79593 -9.81823
ltoes -14.0691
